<svg xmlns="http://www.w3.org/2000/svg" viewBox="0 0 120 38.35"><defs><style>.cls-1,.cls-2{fill:#003062;}.cls-2{fill-rule:evenodd;}</style></defs><g id="Layer_2" data-name="Layer 2"><g id="Layer_1-2" data-name="Layer 1"><path class="cls-1" d="M77.61,12.89h5.14l-.17.89H78.45l-.76,3.72h3.89l-.16.89H77.51l-.84,4H81l-.15.89H75.47Z"/><path class="cls-1" d="M85.18,12.11h1L83.78,23.3h-1Z"/><path class="cls-1" d="M87.26,19.77a4,4,0,0,0-.05.61,2.16,2.16,0,0,0,2.31,2.3,5.48,5.48,0,0,0,2.23-.51l-.08.91a5.65,5.65,0,0,1-2.26.4,2.91,2.91,0,0,1-3.14-3.1c0-2.55,1.49-4.87,3.94-4.87a2.52,2.52,0,0,1,2.69,2.84,14,14,0,0,1-.11,1.42ZM91.91,19c0-.21,0-.4,0-.58,0-1.24-.53-2.06-1.75-2.06A3,3,0,0,0,87.42,19Z"/><path class="cls-1" d="M99.85,16.66a5.12,5.12,0,0,0-1.76-.34c-2.16,0-3.33,1.58-3.33,3.61a2.55,2.55,0,0,0,2.47,2.75,5.26,5.26,0,0,0,1.61-.36l-.12.94a5.8,5.8,0,0,1-1.73.22A3.28,3.28,0,0,1,93.73,20c0-2.68,1.53-4.49,4.47-4.49a6.84,6.84,0,0,1,1.92.3Z"/><path class="cls-1" d="M102.75,14l1.07-.37-.46,2.07h2l-.19.81h-2l-.81,3.76a7.89,7.89,0,0,0-.22,1.49.81.81,0,0,0,.86.93,1.61,1.61,0,0,0,.81-.21l-.09.8a2.06,2.06,0,0,1-1,.21c-1.06,0-1.65-.6-1.65-1.42a12.67,12.67,0,0,1,.34-2.19l.73-3.37h-1.52l.21-.81h1.49Z"/><path class="cls-1" d="M106.45,17.05a13.39,13.39,0,0,0,.21-1.36h.94a7.34,7.34,0,0,1-.17,1.15h0a2.49,2.49,0,0,1,2.12-1.33,3.87,3.87,0,0,1,.82.11l-.22,1a2,2,0,0,0-.81-.12c-1.53,0-2.14,1.68-2.43,3.06l-.77,3.74h-1Z"/><path class="cls-1" d="M111.75,15.69h1l-1.61,7.61h-1Zm1.47-2h-1.11l.26-1.25h1.12Z"/><path class="cls-1" d="M119.73,16.66a5.12,5.12,0,0,0-1.76-.34c-2.16,0-3.33,1.58-3.33,3.61a2.55,2.55,0,0,0,2.46,2.75,5.25,5.25,0,0,0,1.62-.36l-.12.94a5.8,5.8,0,0,1-1.73.22A3.28,3.28,0,0,1,113.61,20c0-2.68,1.52-4.49,4.46-4.49a6.86,6.86,0,0,1,1.93.3Z"/><polyline class="cls-2" points="0 36.14 0.34 36.23 1.39 36.48 3.2 36.84 4.41 37.04 5.83 37.25 7.46 37.45 9.32 37.65 11.4 37.84 13.72 38.01 16.29 38.15 19.1 38.26 22.16 38.33 25.49 38.35 27.24 38.33 29.03 38.27 30.86 38.17 32.72 38.03 34.6 37.85 36.49 37.63 38.4 37.37 40.3 37.07 42.21 36.74 44.1 36.36 45.98 35.95 47.83 35.5 49.66 35.01 51.45 34.49 53.2 33.93 54.91 33.33 56.55 32.7 58.14 32.03 59.66 31.33 61.11 30.59 62.48 29.82 63.76 29.01 64.37 28.59 64.95 28.16 65.52 27.73 66.05 27.29 66.56 26.84 67.04 26.38 67.49 25.91 67.91 25.43 68.31 24.95 68.67 24.46 69 23.96 69.31 23.45 69.58 22.93 69.81 22.41 70.02 21.88 70.18 21.34 70.31 20.79 70.41 20.23 70.47 19.67 70.49 19.09 70.47 18.52 70.41 17.96 70.31 17.4 70.17 16.85 70 16.31 69.79 15.78 69.55 15.26 69.27 14.74 68.96 14.24 68.61 13.74 68.24 13.25 67.83 12.77 67.39 12.29 66.93 11.83 66.43 11.37 65.91 10.93 65.36 10.48 64.79 10.05 64.19 9.63 63.57 9.22 62.26 8.42 60.87 7.65 59.39 6.92 57.84 6.22 56.23 5.56 54.56 4.94 52.85 4.35 51.09 3.79 49.29 3.28 47.46 2.8 45.61 2.36 43.75 1.95 41.87 1.58 39.99 1.25 38.12 0.96 36.26 0.71 34.42 0.49 32.6 0.32 30.82 0.18 29.07 0.08 27.38 0.02 25.73 0 22.52 0 23.99 0.18 25.68 0.41 27.88 0.77 30.47 1.25 33.37 1.87 34.9 2.23 36.47 2.64 38.06 3.08 39.67 3.56 41.27 4.09 42.86 4.67 44.43 5.29 45.96 5.95 47.44 6.67 48.85 7.44 49.53 7.84 50.19 8.26 50.83 8.68 51.45 9.13 52.03 9.58 52.6 10.05 53.13 10.54 53.64 11.04 54.11 11.55 54.55 12.08 54.96 12.62 55.33 13.18 55.66 13.75 55.95 14.34 56.2 14.94 56.41 15.56 56.58 16.19 56.7 16.84 56.77 17.51 56.8 18.19 56.77 18.88 56.69 19.55 56.55 20.21 56.36 20.86 56.12 21.49 55.82 22.11 55.48 22.73 55.1 23.32 54.66 23.91 54.18 24.48 53.66 25.04 53.1 25.59 52.49 26.12 51.85 26.64 51.17 27.15 50.45 27.65 49.7 28.13 48.91 28.6 48.09 29.06 47.24 29.5 46.36 29.93 45.46 30.35 43.56 31.15 41.57 31.9 39.5 32.6 37.35 33.24 35.13 33.84 32.87 34.38 30.55 34.86 28.22 35.3 25.86 35.68 23.49 36.01 21.12 36.29 18.77 36.52 16.45 36.69 14.15 36.81 11.9 36.87 9.71 36.88 7.59 36.84 5.55 36.75 3.59 36.6 1.74 36.4 0 36.14"/><path class="cls-1" d="M8.51,13.37,8.59,13h6.68l-.07.42H14l-1.69,9.45c2.18,0,3.31-.45,4.51-2.29a5.67,5.67,0,0,0,.64-1.25H18l-.73,4h-10l.07-.43h.57l1.68-9.45Z"/><path class="cls-1" d="M17.6,18.88c.46-1.56,1.09-2.88,3-2.88a1.82,1.82,0,0,1,1.88,2.07c0,1.37-.76,2.78-.77,3.85a.31.31,0,0,0,.34.35c.33,0,.72-.54.84-.79a18,18,0,0,0,1.24-5.34l.79,0,.78,0c.63,0,1.1-.05,2-.07-.74,3.56-.86,4.55-.92,4.94-.15.83-.12,1.08.15,1.08s.4-.13.87-1.53h.35c-.66,2.25-1.62,2.83-2.77,2.83-1.67,0-1.91-1.3-1.79-2.65l0,0c-.82,1.87-1.52,2.68-3.09,2.68a1.94,1.94,0,0,1-2-2A13.17,13.17,0,0,1,19.13,18c.18-.51.09-.78-.16-.78-.52,0-.89,1.28-1,1.7Z"/><path class="cls-1" d="M35.67,22a5.61,5.61,0,0,1-3.84,1.51c-3.52,0-4-2.23-4-3.24,0-1.79,1.78-4.22,5.37-4.22,1.33,0,3.13.43,3.13,2a1.56,1.56,0,0,1-1.72,1.51A1.53,1.53,0,0,1,33,18c0-1,.76-1.07.76-1.3s-.29-.41-.61-.41c-.63,0-.81.68-.94,1.14a13.77,13.77,0,0,0-.6,3.74c0,1,.4,1.6,1.34,1.6a4.27,4.27,0,0,0,2.43-1Z"/><path class="cls-1" d="M36.48,18.88c.42-1.45,1.1-2.88,2.84-2.88,1.21,0,2.07.6,2.07,1.88a17.52,17.52,0,0,1-.66,3.51c-.07.35.06.62.25.62.57,0,1.09-1.38,1.28-2.42l.64-3.45.8,0c.28,0,.56,0,.87,0,.69,0,1.18-.05,1.83-.07-.49,2.08-.85,4.46-1.23,6.44-.43,2.27-1.55,3.89-5.2,3.89-2.27,0-3.16-.54-3.16-1.5s.92-1.23,1.73-1.23c.61,0,1.34.4,1.34,1.08s-.5.75-.5,1,.41.29.57.29c.73,0,1.5-.3,2.15-4.74l0,0c-.74,1.1-1.37,1.9-2.78,1.9a1.83,1.83,0,0,1-1.93-2,26.48,26.48,0,0,1,.77-3.63c0-.23,0-.41-.27-.41s-.51.22-1,1.73Z"/></g></g></svg>