<svg xmlns="http://www.w3.org/2000/svg" viewBox="0 0 120 12.26"><defs><style>.cls-1{fill:#028449;}</style></defs><g id="Layer_2" data-name="Layer 2"><g id="Layer_1-2" data-name="Layer 1"><path class="cls-1" d="M120,1.73A1.78,1.78,0,1,1,118.23,0,1.74,1.74,0,0,1,120,1.73Zm-3.11,0a1.34,1.34,0,0,0,1.35,1.38,1.32,1.32,0,0,0,1.32-1.37,1.34,1.34,0,1,0-2.67,0Zm1.06.91h-.4V.91a3.57,3.57,0,0,1,.67-.06,1.13,1.13,0,0,1,.6.13.51.51,0,0,1,.17.38.44.44,0,0,1-.36.4v0a.51.51,0,0,1,.31.43,1.56,1.56,0,0,0,.13.43h-.43a1.41,1.41,0,0,1-.14-.42c0-.19-.14-.28-.36-.28H118Zm0-1h.19c.22,0,.4-.08.4-.26s-.11-.26-.37-.26l-.22,0Z"/><path class="cls-1" d="M2.39,5v6a.62.62,0,0,0,.09.39.86.86,0,0,0,.37.16v.25H0v-.25a.7.7,0,0,0,.38-.18A.61.61,0,0,0,.47,11V2.61a.6.6,0,0,0-.09-.38A.71.71,0,0,0,0,2.06V1.82H3.57v.24a.54.54,0,0,0-.23.1.23.23,0,0,0-.09.18.42.42,0,0,0,.06.21,1.31,1.31,0,0,0,.21.25L8.93,8.31V2.61a.58.58,0,0,0-.08-.38.79.79,0,0,0-.39-.17V1.82h2.85v.24a.7.7,0,0,0-.37.18.61.61,0,0,0-.09.37V11a.64.64,0,0,0,.09.39.67.67,0,0,0,.37.16v.25H8v-.25a.61.61,0,0,0,.23-.1.25.25,0,0,0,.08-.18.42.42,0,0,0-.06-.21,1.26,1.26,0,0,0-.2-.24Z"/><path class="cls-1" d="M19.72,1.64A6,6,0,0,1,23.88,3.1,4.74,4.74,0,0,1,25.5,6.79a4.82,4.82,0,0,1-1.63,3.7A6,6,0,0,1,19.72,12a5.92,5.92,0,0,1-4.11-1.48A4.81,4.81,0,0,1,14,6.79,4.77,4.77,0,0,1,15.6,3.1a5.93,5.93,0,0,1,4.12-1.46M16.1,6.73a3.19,3.19,0,0,0,1,2.45,3.75,3.75,0,0,0,2.65.92,3.7,3.7,0,0,0,2.64-.93,3.16,3.16,0,0,0,1-2.44,3.18,3.18,0,0,0-1-2.45,3.75,3.75,0,0,0-2.66-.93,3.63,3.63,0,0,0-2.62.94,3.16,3.16,0,0,0-1,2.44"/><path class="cls-1" d="M34.87,8.36a4.94,4.94,0,0,1-.22,1.71,2.48,2.48,0,0,1-.77,1,4.12,4.12,0,0,1-1.29.65,6,6,0,0,1-1.65.22,8.67,8.67,0,0,1-2-.24,11.62,11.62,0,0,0-1.18-.24,1,1,0,0,0-.28,0l-.37.09-.22-.11,1-2.47.22.1v.07c0,.29.27.56.82.81a4.3,4.3,0,0,0,1.86.39,1.94,1.94,0,0,0,1.41-.44,2,2,0,0,0,.44-1.46V2.61a.62.62,0,0,0-.09-.39.64.64,0,0,0-.37-.16V1.82h3.12v.24a.61.61,0,0,0-.37.16.62.62,0,0,0-.09.39Z"/><path class="cls-1" d="M37,11.79v-.25a1.38,1.38,0,0,0,.84-.85.67.67,0,0,1,.06-.12l3.7-7.75.08-.18a.41.41,0,0,0-.12-.39,1,1,0,0,0-.39-.19V1.82h3.37v.24a1.11,1.11,0,0,0-.38.18.32.32,0,0,0-.09.23.77.77,0,0,0,0,.15l.07.2L48,10.58a3.27,3.27,0,0,0,.45.7,1.13,1.13,0,0,0,.48.26v.25H45.36v-.25a1.14,1.14,0,0,0,.37-.18.35.35,0,0,0,.11-.26.78.78,0,0,0,0-.14,2.05,2.05,0,0,0-.08-.2L45,9.23H40.44l-.68,1.53a2.05,2.05,0,0,0-.08.2.78.78,0,0,0,0,.14.35.35,0,0,0,.11.26,1.14,1.14,0,0,0,.37.18v.25ZM42.8,4.36,41.1,7.87h3.31Z"/><path class="cls-1" d="M56.78,11.79v-.25a.64.64,0,0,0,.38-.17.6.6,0,0,0,.1-.38V2.61a.61.61,0,0,0-.09-.37.78.78,0,0,0-.39-.18V1.82h6.15a5.17,5.17,0,0,1,3,.76A2.43,2.43,0,0,1,67,4.7a2.66,2.66,0,0,1-1,2.2,4.45,4.45,0,0,1-2.81.81H59.44V11a.59.59,0,0,0,.09.38.79.79,0,0,0,.39.17v.25Zm5.53-8.31H59.44V6h3a4.59,4.59,0,0,0,1.92-.31,1,1,0,0,0,.61-1,1,1,0,0,0-.59-.95,5.08,5.08,0,0,0-2-.29"/><path class="cls-1" d="M73.56,3.41a5.05,5.05,0,0,1,3.5,1.21,3.9,3.9,0,0,1,1.37,3.07,3.89,3.89,0,0,1-1.37,3.05A5.09,5.09,0,0,1,73.56,12a5,5,0,0,1-3.45-1.22,3.94,3.94,0,0,1-1.37-3,3.93,3.93,0,0,1,1.37-3.06,4.94,4.94,0,0,1,3.45-1.22M70.78,7.69a2.47,2.47,0,0,0,.77,1.9,2.83,2.83,0,0,0,2,.73,2.86,2.86,0,0,0,2-.74,2.48,2.48,0,0,0,.78-1.89,2.53,2.53,0,0,0-.78-1.92A3,3,0,0,0,73.56,5a2.82,2.82,0,0,0-2,.74,2.5,2.5,0,0,0-.77,1.91"/><path class="cls-1" d="M88.87,3.6v.25a1.27,1.27,0,0,0-.39.19.4.4,0,0,0-.1.3.53.53,0,0,0,0,.12,1.24,1.24,0,0,0,0,.16L90,9l1.58-4.37.06-.15a.83.83,0,0,0,0-.13A.42.42,0,0,0,91.5,4a.9.9,0,0,0-.38-.19V3.6h3.11v.25a1.22,1.22,0,0,0-.52.27,2.31,2.31,0,0,0-.38.69l-2.29,6,0,.13s0,.1,0,.16a.37.37,0,0,0,.1.29,1,1,0,0,0,.4.2v.25H88.34v-.25a1.18,1.18,0,0,0,.38-.19.41.41,0,0,0,.09-.3.81.81,0,0,0,0-.16.51.51,0,0,0,0-.13l-1.87-5-1.78,5.05,0,.13a.81.81,0,0,0,0,.16.38.38,0,0,0,.1.3,1.07,1.07,0,0,0,.38.19v.25H82.41v-.25a1.35,1.35,0,0,0,.4-.19.45.45,0,0,0,.09-.3,1,1,0,0,0,0-.18.39.39,0,0,0,0-.11L80.53,4.81a2,2,0,0,0-.38-.7,1.22,1.22,0,0,0-.51-.26V3.6h3.21v.25a1.23,1.23,0,0,0-.39.17.29.29,0,0,0-.09.22.57.57,0,0,0,0,.18,1,1,0,0,0,.07.2L84.12,9,85.7,4.62s0-.1,0-.15a.62.62,0,0,0,0-.13.45.45,0,0,0-.1-.3,1.51,1.51,0,0,0-.39-.2V3.6Z"/><path class="cls-1" d="M103.56,3.6a.6.6,0,0,0,.4-.09.68.68,0,0,0,.15-.35h.25V5.71h-.25a.67.67,0,0,0-.16-.37.62.62,0,0,0-.39-.09h-5V6.89h3.08A.58.58,0,0,0,102,6.8a.67.67,0,0,0,.16-.37h.25V8.76h-.25A.67.67,0,0,0,102,8.4a.62.62,0,0,0-.39-.09H98.54v1.84h5.23a.59.59,0,0,0,.39-.08.86.86,0,0,0,.16-.37h.24v2.56h-.24a.64.64,0,0,0-.16-.37.59.59,0,0,0-.39-.1H96.1v-.25a.64.64,0,0,0,.37-.17.54.54,0,0,0,.1-.38V4.39a.56.56,0,0,0-.1-.38.64.64,0,0,0-.37-.16V3.6Z"/><path class="cls-1" d="M110.06,11a.54.54,0,0,0,.1.38.64.64,0,0,0,.37.17v.25h-2.9v-.25a.67.67,0,0,0,.36-.16.64.64,0,0,0,.09-.39V4.39A.6.6,0,0,0,108,4a.6.6,0,0,0-.36-.16V3.6h5.45a4.4,4.4,0,0,1,2.54.62,2,2,0,0,1,.9,1.75,2.16,2.16,0,0,1-.58,1.54,3.22,3.22,0,0,1-1.7.85l1.6,2.23a2.07,2.07,0,0,0,.45.48,4.67,4.67,0,0,0,.73.47v.25h-3.44v-.24a.91.91,0,0,0,.31-.12.26.26,0,0,0,.1-.21.62.62,0,0,0-.07-.18,1.47,1.47,0,0,0-.16-.28l-1.61-2.31h-2.09Zm2.28-5.91h-2.28V6.94h2.36a4.06,4.06,0,0,0,1.6-.23.75.75,0,0,0,.52-.72A.72.72,0,0,0,114,5.3a4.56,4.56,0,0,0-1.69-.22"/></g></g></svg>