<svg xmlns="http://www.w3.org/2000/svg" viewBox="0 0 120 53.06"><defs><style>.cls-1{fill:#fff;}.cls-2{fill:#d22127;}</style></defs><g id="Layer_2" data-name="Layer 2"><g id="Layer_1-2" data-name="Layer 1"><rect class="cls-1" width="120" height="53.06" rx="26.53"/><path class="cls-2" d="M76.54,24.44a1.15,1.15,0,0,0-.85-1.17,4.17,4.17,0,0,1-.58-.24c-.06,0-.07-.2-.06-.31s.1-.08.16-.13l6.39-4.86c.51-.38.57-.4.92.1A19.51,19.51,0,0,1,83.91,20c.36.68.31.72-.3,1.19L78.75,25c-4,3.09-8,6.19-12.07,9.26-1.51,1.15-3.06,2.25-4.59,3.37-.17.13-.36.32-.54.32a2.61,2.61,0,0,1-1-.2c-.06,0,0-.45.07-.67.31-1.26.64-2.51,1-3.77a1.79,1.79,0,0,1,.75-1.07q4-2.94,8-5.93A1.64,1.64,0,0,1,71.38,26l3.51.05A1.52,1.52,0,0,0,76.54,24.44Z"/><path class="cls-2" d="M36.2,38.07a6.64,6.64,0,0,1-2.39-.21c-.63-.3-1-1.12-1.51-1.72L22.66,24.42c-1-1.17-1.91-2.35-2.88-3.5a1,1,0,0,1-.22-1c.35-1.28.67-2.57,1-3.86.08-.32.19-.35.38-.12l2,2.43c1.13,1.36,2.24,2.71,3.37,4.06a1.69,1.69,0,0,1,.43,1.5c-.21,1.39-.61,1.41,1.1,1.37a1.45,1.45,0,0,1,1.32.64c3,3.87,6,7.71,9,11.56a2.86,2.86,0,0,1,.24.42,4.43,4.43,0,0,1-.51.06H36.2Z"/><path class="cls-2" d="M62.44,29.93c.46-1.79.91-3.47,1.32-5.17a1.57,1.57,0,0,1,.69-1q3.51-2.53,7-5.1c1.17-.86,2.32-1.72,3.45-2.62a3.14,3.14,0,0,1,1.83-.63,6.5,6.5,0,0,1,3.56.73c.55.29.56.3.09.65l-5.21,4c-3,2.24-5.88,4.48-8.84,6.7-1.17.89-2.39,1.72-3.59,2.57a1,1,0,0,1-.26.1Z"/><path class="cls-2" d="M25.2,15.48c1.14,0,2,0,2.77,0A1.15,1.15,0,0,1,29,16c2.31,2.92,4.65,5.83,7,8.74.46.57.91,1.16,1.39,1.72.28.31.34.54,0,.87a7.21,7.21,0,0,1-2.91,1.85c-.33.11-.57.14-.82-.18-.9-1.12-1.82-2.23-2.74-3.33a.48.48,0,0,1,0-.73,1.78,1.78,0,0,0,.27-2,.77.77,0,0,0-.81-.54c-.5,0-1,0-1.49,0a1.09,1.09,0,0,1-1-.44l-5-6.11a2.08,2.08,0,0,1-.24-.34c-.12-.19,0-.23.16-.22Z"/><path class="cls-2" d="M53.43,29.59c-1.09.05-2.19.1-3.27.17a1.11,1.11,0,0,1-1.06-.52q-2.72-3.49-5.48-6.94a1.32,1.32,0,0,1-.31-1.25c.42-1.66.81-3.33,1.22-5,0-.09.07-.18.1-.27a1,1,0,0,1,.26.16c.88,1.1,1.75,2.19,2.62,3.3q3.68,4.68,7.34,9.37a5,5,0,0,1,.44.59,1.4,1.4,0,0,1,.13.34,1.09,1.09,0,0,1-.3.07H53.43Z"/><path class="cls-2" d="M51.38,38.18c-.6,0-1.2,0-1.8,0a1.42,1.42,0,0,1-1.35-.62c-1-1.27-2.06-2.5-3.09-3.75S42.88,31,41.73,29.66a1,1,0,0,1-.24-1c.41-1.48.74-3,1.1-4.48a3.84,3.84,0,0,1,.14-.36,2.17,2.17,0,0,1,.32.27l3,3.81,7.58,9.6c.08.11.18.21.27.32s.1.39-.2.39Z"/><path class="cls-2" d="M30.73,38c-.55.13-.93-.17-1.32-.66C28,35.6,26.6,33.92,25.18,32.22a1.71,1.71,0,0,0-.41-.27,2.3,2.3,0,0,0-.23.44c-.23.8-.44,1.61-.67,2.42a1.78,1.78,0,0,1-.19.36,1.59,1.59,0,0,1-.32-.19L18,28.51a1.08,1.08,0,0,1-.26-1.14c.43-1.51.78-3,1.14-4.57.08-.35.22-.29.39-.09.9,1.07,1.81,2.15,2.7,3.24Q26,30.87,30,35.8c.47.57.93,1.14,1.39,1.72a3,3,0,0,1,.25.43l-.52,0Z"/><path class="cls-2" d="M93.75,23.14c0,.09,0,.19-.08.29-.53,2.06-1.07,4.13-1.59,6.2a1.64,1.64,0,0,1-.58,1l-8.21,6.48a2.7,2.7,0,0,1-.34.25c-.11.06-.22.1-.33.15a1.53,1.53,0,0,1,0-.3c.41-1.73.92-3.45,1.21-5.21A4.65,4.65,0,0,1,86,28.79c2.39-1.74,4.69-3.61,7-5.42.17-.13.34-.26.52-.38a1,1,0,0,1,.18-.06Z"/><path class="cls-2" d="M94.45,15.48c1.26,0,1.26,0,1,1.08s-.56,2.09-.81,3.15a1.54,1.54,0,0,1-.59.95l-8.42,6.53a2,2,0,0,1-.27.17c-.17.1-.27,0-.26-.14a4.45,4.45,0,0,1,.12-.73c.39-1.63.8-3.25,1.16-4.89a2.26,2.26,0,0,1,.88-1.37q2.76-2.06,5.47-4.15A2,2,0,0,1,94.45,15.48Z"/><path class="cls-2" d="M73.84,32.17,72.08,32c.46-.37.91-.75,1.39-1.12l10.6-8.17c.08-.06.18-.1.27-.16a1.83,1.83,0,0,1,.09.39,8.4,8.4,0,0,1-1.93,5.64,9.69,9.69,0,0,1-3.23,2.66,5.06,5.06,0,0,1-2.41.66C75.88,31.94,74.9,32.08,73.84,32.17Z"/><path class="cls-2" d="M54.82,22.38c-.68,0-1.35,0-2,0a1.54,1.54,0,0,1-1.43-.67c-1.27-1.68-2.58-3.33-3.88-5-.13-.16-.27-.32-.39-.5s-.36-.57-.54-.86c.32,0,.64,0,.95,0,1.37,0,2.75.1,4.12.12a1.25,1.25,0,0,1,1.09.48c1.64,2,3.29,4,4.94,6a1.2,1.2,0,0,1,.11.35,1.55,1.55,0,0,1-.31.06Z"/><path class="cls-2" d="M87.55,38.18H84.79l-.21,0c0-.09,0-.21.12-.26L88.33,35c1-.77,2-1.52,2.9-2.3a2,2,0,0,1,1.44-.52c1.7,0,3.39,0,5.09,0l.31,0a1,1,0,0,1-.19.32c-2.27,1.79-4.55,3.56-6.81,5.36a1.45,1.45,0,0,1-1,.3Z"/><path class="cls-2" d="M59,15.48h3.81c.58,0,.66.09.55.58-.41,2-.84,3.89-1.25,5.83a.53.53,0,0,1-.57.49h-.11c-1.37.09-1.45.05-2.32-1L54.74,16a1.78,1.78,0,0,1-.19-.36,1.23,1.23,0,0,1,.44-.16c1.34,0,2.68,0,4,0Z"/><path class="cls-2" d="M21.34,38.14,15.53,38c-.23,0-.55.08-.43-.36.6-2.41,1.2-4.81,1.81-7.22a2.83,2.83,0,0,1,.16-.36,1.52,1.52,0,0,1,.34.22c1.8,2.12,3.58,4.24,5.39,6.35a1,1,0,0,1,.2,1.07.56.56,0,0,1-.6.47c-.35,0-.71,0-1.06,0Z"/><path class="cls-2" d="M31.77,15.5c3,.35,5.61,1.36,7,4.26A6.34,6.34,0,0,1,38.9,25c-.19.52-.33.53-.69.08l-4.92-6.17L31,16c-.08-.11-.13-.24-.2-.36a3.45,3.45,0,0,1,.46-.12A4.64,4.64,0,0,1,31.77,15.5Z"/><path class="cls-2" d="M55.32,31.5c1.31,0,2.61,0,3.92,0,.41,0,.45.13.35.49q-.78,2.83-1.51,5.67a.63.63,0,0,1-.64.55,2,2,0,0,1-2-.87c-1.34-1.8-2.76-3.55-4.15-5.31-.11-.14-.2-.29-.3-.43a4.14,4.14,0,0,1,.6-.09C52.85,31.49,54.08,31.49,55.32,31.5Z"/><path class="cls-2" d="M43,38.18H39.67c-.32,0-.47-.09-.39-.43.51-2.08,1-4.15,1.52-6.22a1,1,0,0,1,.15-.27,1.24,1.24,0,0,1,.28.22q2.57,3.09,5.1,6.18a2.35,2.35,0,0,1,.22.45,3.2,3.2,0,0,1-.41.07Z"/><path class="cls-2" d="M70.52,15.32h2.32c.08,0,.15.07.23.11s-.06.14-.11.18c-.77.6-1.55,1.21-2.33,1.8-1.38,1-2.75,2.07-4.13,3.09-.37.27-.76.5-1.15.73a6.37,6.37,0,0,1-.61.23,3.3,3.3,0,0,1,.05-.71,14,14,0,0,1,.92-2.84,6.15,6.15,0,0,0,.47-1.71c.18-.71.18-.72.86-.76l3.47-.19Z"/><path class="cls-2" d="M56.42,23.67c1,0,1.91,0,2.87,0,.49,0,.54.08.43.58-.33,1.54-.66,3.08-1,4.61-.06.29,0,.66-.47.72a1,1,0,0,1-1-.39c-1.3-1.7-2.62-3.39-3.94-5.09a1.15,1.15,0,0,1-.13-.34,1.59,1.59,0,0,1,.3-.06h3Z"/><path class="cls-2" d="M96,38.18H93.77a1.55,1.55,0,0,1-.31-.06c.06-.11.09-.25.18-.32q1.94-1.56,3.89-3.09l2.66-2.09a2.26,2.26,0,0,1,.26-.16,1.38,1.38,0,0,1,0,.29l-.84,2.93c-.18.64-.38,1.28-.54,1.92a.71.71,0,0,1-.84.59c-.74,0-1.48,0-2.23,0Z"/><path class="cls-2" d="M67.33,38.11,64.41,38l-.2-.05a.83.83,0,0,1,.16-.21l3-2.15,1.43-1.07a1.66,1.66,0,0,1,.33-.15,1.09,1.09,0,0,1,0,.4c-.23,1-.51,1.89-.72,2.83C68.27,38.1,68,38.27,67.33,38.11Z"/><path class="cls-2" d="M88.38,15.45H90.6a1.9,1.9,0,0,1,.28.1s-.09.11-.14.15l-3.27,2.5a1,1,0,0,1-.18.09c0-.07-.07-.14-.05-.19.19-.82.4-1.63.59-2.45C87.9,15.33,88.11,15.29,88.38,15.45Z"/><path class="cls-2" d="M102.47,17.37h-.31v.92a.12.12,0,0,0,.09.12.9.9,0,0,0,.26.06s0,0,0,.07a.2.2,0,0,1,0,.07h-1.1a.2.2,0,0,1,0-.07s0-.06,0-.06l.23-.06a.14.14,0,0,0,.06-.12V16.18a.14.14,0,0,0-.06-.12.5.5,0,0,0-.23-.06s0,0,0-.07,0,0,0-.07l.26,0h.82a1,1,0,0,1,.68.2.73.73,0,0,1,.19.73.82.82,0,0,1-.09.19.73.73,0,0,1-.17.18.92.92,0,0,1-.24.13l.7,1a.47.47,0,0,0,.17.15l.18.06s0,0,0,.06a.2.2,0,0,1,0,.07h-.49a.25.25,0,0,1-.17-.07,1,1,0,0,1-.17-.19Zm-.09-.17a.71.71,0,0,0,.45-.12.5.5,0,0,0,.16-.43.88.88,0,0,0,0-.24.52.52,0,0,0-.11-.19.52.52,0,0,0-.19-.12.84.84,0,0,0-.29-.05h-.21V17.2Z"/><path class="cls-2" d="M102.53,19.64a2.4,2.4,0,1,1,2.4-2.4A2.41,2.41,0,0,1,102.53,19.64Zm0-4.61a2.22,2.22,0,1,0,2.22,2.21A2.22,2.22,0,0,0,102.53,15Z"/></g></g></svg>