<svg xmlns="http://www.w3.org/2000/svg" viewBox="0 0 291.26 97.17"><defs><style>.cls-1,.cls-3,.cls-4,.cls-5,.cls-6,.cls-7,.cls-8{fill:#fff;}.cls-2,.cls-3,.cls-4,.cls-5,.cls-6,.cls-7,.cls-8{isolation:isolate;}.cls-3,.cls-4,.cls-5,.cls-6,.cls-7{font-size:35.59px;font-family:Roboto-BoldItalic, Roboto;font-weight:700;}.cls-3,.cls-4,.cls-5,.cls-6,.cls-7,.cls-8{font-style:italic;}.cls-3{letter-spacing:0.04em;}.cls-4{letter-spacing:0.05em;}.cls-5{letter-spacing:0.03em;}.cls-6{letter-spacing:0.04em;}.cls-7{letter-spacing:0.03em;}.cls-8{font-size:28.47px;font-family:Poppins-SemiBoldItalic, Poppins;font-weight:600;letter-spacing:0.04em;}</style></defs><g id="Layer_2" data-name="Layer 2"><g id="Layer_1-2" data-name="Layer 1"><g id="Layer_2-2" data-name="Layer 2"><g id="Layer_1-2-2" data-name="Layer 1-2"><polygon class="cls-1" points="37.53 46.55 72.57 15.3 63.48 40.42 125.79 40.55 125.86 35.32 71.1 35.38 83.42 0.25 30.86 46.52 37.53 46.55"/><polygon class="cls-1" points="85.58 51 50.54 82.12 59.63 57 42 57.08 42 62.05 52.01 62.04 39.69 97.17 92.25 50.93 85.58 51"/><polygon class="cls-1" points="85.64 51.14 26.25 50.51 30.95 46.45 96.76 46.83 91.42 51.68 85.64 51.14"/><polygon class="cls-1" points="291.26 40.52 125.79 40.55 125.93 35.32 291.26 35.32 291.26 40.52"/><polygon class="cls-1" points="42 62.05 0 62.03 0.04 57.03 42 57.08 42 62.05"/><g class="cls-2"><text class="cls-3" transform="translate(87.72 30.45)">F</text><text class="cls-4" transform="translate(108.19 30.45)">I</text><text class="cls-5" transform="translate(120.49 30.45)">X</text><text class="cls-6" transform="translate(143.69 30.45)">O</text><text class="cls-7" transform="translate(169.13 30.45)">N</text><text class="cls-6" transform="translate(194.46 30.45)">TIME</text></g><text class="cls-8" transform="translate(155.98 68.47)">electric</text></g></g></g></g></svg>