<svg xmlns="http://www.w3.org/2000/svg" xmlns:xlink="http://www.w3.org/1999/xlink" viewBox="0 0 291.26 97.16"><defs><style>.cls-1{fill:#fd0014;}.cls-2{fill:#030762;}.cls-3{fill:url(#linear-gradient);}.cls-4{fill:url(#linear-gradient-2);}.cls-5{font-size:35.59px;font-family:Roboto-BlackItalic, Roboto;font-weight:800;letter-spacing:0.04em;}.cls-11,.cls-5{fill:#262261;font-style:italic;}.cls-6{letter-spacing:0.05em;}.cls-7{letter-spacing:0.03em;}.cls-8{letter-spacing:0.04em;}.cls-9{letter-spacing:0.03em;}.cls-10{letter-spacing:0.04em;}.cls-11{font-size:28.47px;font-family:Poppins-SemiBoldItalic, Poppins;font-weight:600;letter-spacing:0.04em;}</style><linearGradient id="linear-gradient" x1="291.26" y1="37.92" x2="125.79" y2="37.92" gradientUnits="userSpaceOnUse"><stop offset="0" stop-color="#fff" stop-opacity="0"/><stop offset="1" stop-color="#fd0014"/></linearGradient><linearGradient id="linear-gradient-2" y1="59.53" x2="42" y2="59.53" gradientUnits="userSpaceOnUse"><stop offset="0" stop-color="#fff" stop-opacity="0"/><stop offset="1" stop-color="#030762"/></linearGradient></defs><g id="Layer_2" data-name="Layer 2"><g id="Layer_1-2" data-name="Layer 1"><polygon class="cls-1" points="37.53 46.54 72.57 15.29 63.48 40.41 125.79 40.54 125.86 35.31 71.1 35.37 83.42 0.24 30.86 46.51 37.53 46.54"/><polygon class="cls-2" points="85.58 50.99 50.54 82.11 59.63 56.99 42 57.07 42 62.04 52.01 62.03 39.69 97.16 92.25 50.92 85.58 50.99"/><polygon class="cls-2" points="85.64 51.13 26.25 50.5 30.95 46.44 96.76 46.82 91.42 51.67 85.64 51.13"/><polygon class="cls-3" points="291.26 40.51 125.79 40.54 125.93 35.31 291.26 35.31 291.26 40.51"/><polygon class="cls-4" points="42 62.04 0 62.02 0.04 57.02 42 57.07 42 62.04"/><text class="cls-5" transform="translate(87.72 30.44)">F<tspan class="cls-6" x="20.47" y="0">I</tspan><tspan class="cls-7" x="32.77" y="0">X</tspan><tspan class="cls-8" x="55.97" y="0">O</tspan><tspan class="cls-9" x="81.41" y="0">N</tspan><tspan class="cls-10" x="106.74" y="0">TIME</tspan></text><text class="cls-11" transform="translate(155.98 68.46)">electric</text></g></g></svg>